<svg width="460" height="320" viewBox="0 0 460 320" fill="none" xmlns="http://www.w3.org/2000/svg">
<path opacity="0.5" d="M460 0.52002H0V320.52H460V0.52002Z" fill="url(#paint0_radial)"/>
<path d="M143.75 157.2C145.793 157.2 147.45 155.544 147.45 153.5C147.45 151.457 145.793 149.8 143.75 149.8C141.706 149.8 140.05 151.457 140.05 153.5C140.05 155.544 141.706 157.2 143.75 157.2Z" stroke="#9E4D9E" stroke-width="0.3725" stroke-miterlimit="10"/>
<path d="M351.45 82.7003C353.493 82.7003 355.15 81.0437 355.15 79.0003C355.15 76.9568 353.493 75.3003 351.45 75.3003C349.407 75.3003 347.75 76.9568 347.75 79.0003C347.75 81.0437 349.407 82.7003 351.45 82.7003Z" stroke="#D194D3" stroke-width="0.3725" stroke-miterlimit="10"/>
<path d="M106.65 75.7001C107.92 75.7001 108.95 74.6703 108.95 73.4001C108.95 72.1298 107.92 71.1001 106.65 71.1001C105.379 71.1001 104.35 72.1298 104.35 73.4001C104.35 74.6703 105.379 75.7001 106.65 75.7001Z" stroke="#D194D3" stroke-width="0.3725" stroke-miterlimit="10"/>
<path d="M80.55 175.8C79.95 175.8 79.35 175.9 78.75 176.1C79.15 174.4 79.25 172.7 78.85 170.8C77.75 164.9 72.65 160.5 66.65 160.2C59.75 159.9 54.05 165 53.25 171.7C51.95 170.8 50.35 170.2 48.65 170.2C44.35 170.2 40.85 173.6 40.75 177.8C39.85 177.3 38.85 177.1 37.75 177.3C36.05 177.6 34.75 179 34.35 180.6C33.75 183.4 35.85 185.9 38.65 185.9H80.25C82.75 185.9 84.95 184.2 85.45 181.8C86.25 178.7 83.75 175.8 80.55 175.8Z" stroke="#B4BFE2" stroke-width="0.6881" stroke-miterlimit="10" stroke-linecap="round" stroke-linejoin="round"/>
<path d="M235.75 92.4C236.25 92.4 236.85 92.5 237.25 92.7C237.05 91.9 236.95 91 236.95 90.1C236.95 84 241.95 79 248.05 79C253.75 79 258.45 83.3 259.15 88.9C260.25 88.1 261.65 87.6 263.15 87.6C266.85 87.6 269.85 90.5 269.95 94.2C270.45 93.9 271.15 93.7 271.75 93.7C273.85 93.7 275.55 95.4 275.55 97.5C275.55 99.6 273.85 101.3 271.75 101.3H235.75C233.35 101.3 231.35 99.3 231.35 96.9C231.35 94.3 233.25 92.4 235.75 92.4Z" stroke="#B4BFE2" stroke-width="0.6881" stroke-miterlimit="10" stroke-linecap="round" stroke-linejoin="round"/>
<path d="M374.75 195.2C374.25 195.2 373.85 195.3 373.45 195.5C374.25 194 374.75 192.3 374.75 190.4C374.75 184.7 370.15 180.1 364.45 180.1C358.75 180.1 354.15 184.7 354.15 190.4C354.15 190.7 354.15 191.1 354.15 191.4C353.65 191.2 353.05 191.1 352.45 191.1C349.75 191.1 347.65 193.3 347.65 195.9C347.65 198.6 349.85 200.7 352.45 200.7H374.75C376.25 200.7 377.55 199.5 377.55 197.9C377.55 196.4 376.25 195.2 374.75 195.2Z" stroke="#B4BFE2" stroke-width="0.6881" stroke-miterlimit="10" stroke-linecap="round" stroke-linejoin="round"/>
<path d="M239.95 280.7C240.05 280.8 235.85 287.8 237.15 289.7C238.45 291.6 239.25 293.3 238.45 294.2C237.65 295.1 227.95 305 224.65 320.5H217.65C217.65 320.5 217.65 317.1 220.55 316.2C220.55 316.2 230.35 298.4 229.45 295.3C229.45 295.3 229.15 294.7 227.75 294.4C226.45 294.1 221.75 294.2 218.95 287.1C216.15 279.9 239.25 279.9 239.95 280.7Z" fill="url(#paint1_linear)"/>
<path d="M199.45 276.1C199.25 276.3 200.25 285.8 184.55 315.4C184.55 315.4 183.15 319.2 182.85 320.4H175.05C175.05 320.4 175.85 317.6 179.25 316.5C179.25 316.5 194.55 283.1 194.55 269.9L199.45 276.1Z" fill="#E7D5A1"/>
<path d="M218.45 241.7C218.45 241.7 216.75 244.8 217.15 247.1C217.65 249.5 218.55 251.5 219.05 251.8C219.55 252.1 232.25 256.9 248.25 256.2C248.25 256.2 254.05 255.6 256.65 259.6C259.25 263.6 241.45 281.8 241.45 281.8C241.45 281.8 234.85 281.9 229.05 285.1C223.25 288.3 203.45 291.7 196.25 275.7C189.05 259.7 197.25 248 197.55 244.9C197.85 241.8 198.15 235.6 198.15 235.6L218.45 241.7Z" fill="url(#paint2_linear)"/>
<path d="M240.45 274.7C241.05 297.7 258.55 296.5 258.55 296.5C259.35 300.7 255.75 316 255.75 316C252.15 316.2 252.65 320.5 252.65 320.5H260.75C260.65 319.5 261.65 313.2 261.65 313.2C262.55 305.1 268.75 296.6 265.55 293.4C262.45 290.2 259.45 283.5 259.35 281.9C259.25 280.3 260.65 278.4 260.85 269.5C260.85 269.5 259.45 257.6 251.15 256.9C242.85 256.2 240.35 271.7 240.45 274.7Z" fill="#E7D5A1"/>
<path d="M252.15 256.6C252.35 256.7 264.05 257.8 269.45 255.2C274.15 252.9 276.15 250.1 274.55 244.4C272.85 238.7 266.35 240.8 266.35 240.8C266.35 240.8 264.95 241 264.85 240.1C264.75 239.2 265.45 239.1 266.05 238.9C266.65 238.7 274.15 236.9 276.45 243.2C278.75 249.5 276.75 255.9 270.95 258.1C265.15 260.3 256.85 260.4 256.85 260.4L252.15 256.6Z" fill="#846D34"/>
<path d="M243.45 265.1C243.65 265.3 248.85 273.5 252.25 274C255.65 274.6 257.05 272.3 256.45 269.1C255.85 265.9 256.65 264.8 256.95 262.5C257.15 260.2 255.45 258.1 255.45 258.1C255.45 258.1 253.55 255.6 246.35 256.2C238.95 256.9 243.45 265.1 243.45 265.1Z" fill="#846D34"/>
<path d="M212.15 268.6C212.15 268.6 211.55 266 212.95 265.2C214.35 264.5 218.35 262.3 218.15 267.5C218.05 272.7 217.35 313.3 218.15 316.5C218.15 316.5 220.25 317.5 220.05 320.5H212.65C212.65 320.5 212.15 318.7 212.65 317.6C213.15 316.5 213.15 278.9 212.15 268.6Z" fill="#E7D5A1"/>
<path d="M193.15 261.3C193.15 261.3 206.05 267.1 218.65 258.4C218.65 258.4 220.75 260.4 220.75 260.8C220.85 261.2 220.75 264.2 220.75 264.2C220.75 264.2 205.45 273.2 193.35 266.8C193.45 266.8 193.05 262.8 193.15 261.3Z" fill="#093342"/>
<path d="M197.05 262.5C197.05 262.5 196.85 261.3 197.85 261.4C198.85 261.5 203.25 261.7 204.95 261.8C206.45 261.9 206.05 263 206.05 263V268.9C206.05 268.9 206.25 270 205.25 270.1C204.25 270.2 199.95 270.2 197.45 269.3C197.45 269.3 196.65 269.3 196.65 268.1C196.85 267.1 197.05 262.5 197.05 262.5Z" fill="#777777"/>
<path d="M218.55 287.7C218.55 287.7 227.55 284.2 226.85 276.3V275.2L231.15 275.9L230.45 276.6C230.45 276.6 230.45 285.1 221.15 287.4C221.25 287.4 219.25 287.7 218.55 287.7Z" fill="#093342"/>
<path d="M193.25 260C193.25 260 197.15 260.2 197.95 258.1C198.85 256 197.25 250 197.65 248.5C198.05 247 197.35 245.4 197.35 245.4L196.25 248.5C196.15 248.5 193.35 255.4 193.25 260Z" fill="#846D34"/>
<path d="M234.85 236.3C234.85 236.3 234.65 241.6 230.35 241.7C226.05 241.8 216.05 242.5 213.55 243.4C211.05 244.3 198.25 245.2 198.05 238.2C197.85 231.2 233.25 234.9 234.85 236.3Z" fill="url(#paint3_linear)"/>
<path d="M234.55 237.5C234.85 237.5 238.35 235 237.75 230.7C237.15 226.4 234.85 226.8 234.85 226.8L233.95 236.3L234.55 237.5Z" fill="#E7D5A1"/>
<path d="M219.65 220.6C219.65 220.6 222.25 224.4 227.55 224.3C232.75 224.3 235.65 224.6 235.95 225.2C236.25 225.8 238.75 235.1 232.85 237.8C226.95 240.5 215.95 238.2 213.65 238.5C211.35 238.8 201.85 242 197.75 238.6C193.65 235.2 198.95 221.7 198.95 221.7L219.65 220.6Z" fill="url(#paint4_linear)"/>
<path d="M237.85 224.5C237.85 224.5 239.55 224.7 239.35 226.2C239.15 227.7 238.15 232.1 236.55 232.4C235.05 232.7 232.85 224.7 233.15 224.5C233.45 224.3 236.15 224.2 237.85 224.5Z" fill="#232323"/>
<path d="M198.85 221.7C198.85 221.7 201.75 216.7 211.55 217.6C211.55 217.6 218.55 217.9 220.35 221.7C222.15 225.5 218.35 228.1 218.35 228.1C218.35 228.1 215.05 231.4 213.65 232.2C212.25 233 207.35 235.7 198.85 221.7Z" fill="url(#paint5_linear)"/>
<path d="M215.15 227C216.199 227 217.05 226.105 217.05 225C217.05 223.895 216.199 223 215.15 223C214.101 223 213.25 223.895 213.25 225C213.25 226.105 214.101 227 215.15 227Z" fill="#232323"/>
<path d="M197.65 241.6C197.65 241.6 201.35 242.1 202.45 240.2C203.55 238.3 202.25 227.9 205.65 224.3C205.65 224.3 204.45 223.4 202.55 224.7C200.75 225.9 197.75 239.4 197.75 239.4L197.65 241.6Z" fill="url(#paint6_linear)"/>
<path d="M205.65 224.2C205.65 224.2 205.85 223 204.35 222.7C202.85 222.4 199.15 220.3 193.55 223.5C188.05 226.7 189.25 236.6 189.25 236.6C189.25 236.6 189.35 239.7 194.35 239.7C199.35 239.7 200.55 237.9 200.95 236.7C201.35 235.5 203.55 224 205.65 224.2Z" fill="#846D34"/>
<path d="M218.35 250.9C218.35 250.9 220.05 254.4 218.35 256.9C216.65 259.4 219.15 259.7 219.65 260.9C220.15 262.1 221.45 271.2 222.55 273.2C223.65 275.2 225.45 277.3 232.05 276.7C238.75 276.1 242.25 272.2 243.05 270.4C243.85 268.5 246.55 259.6 248.95 258.6C251.35 257.6 250.95 255.8 250.25 255.6C249.55 255.4 234.75 256.8 220.85 251.7C220.85 251.7 219.75 251.4 219.35 250.4C218.95 249.4 217.85 249.7 217.85 249.7L218.35 250.9Z" fill="#0A5B7F"/>
<path d="M230.65 257.5C230.65 257.5 231.55 257.1 232.65 260.5C232.65 260.5 236.35 260.1 236.65 261C236.95 261.9 234.25 263.4 234.25 263.4C234.25 263.4 235.75 266.2 235.15 266.7C234.55 267.2 231.85 265.4 231.85 265.4C231.85 265.4 229.75 267.7 228.65 267.5C227.55 267.3 228.65 263.9 228.65 263.9C228.65 263.9 225.75 262.4 225.85 261.7C225.95 261 229.65 260.7 229.65 260.7C229.65 260.7 229.55 257.7 230.65 257.5Z" fill="#DDCF7F"/>
<path d="M239.05 225.9C239.05 226.6 237.85 227.1 236.45 227.1C235.05 227.1 233.85 225.9 233.85 225.2C233.85 224.5 235.05 224.7 236.45 224.7C237.85 224.7 239.05 225.2 239.05 225.9Z" fill="url(#paint7_linear)"/>
<circle cx="215.5" cy="224.5" r="0.5" fill="white" fill-opacity="0.5"/>
<defs>
<radialGradient id="paint0_radial" cx="0" cy="0" r="1" gradientUnits="userSpaceOnUse" gradientTransform="translate(221.545 320.52) scale(158.778 49.96)">
<stop offset="0.00121702" stop-color="#BFDDF4"/>
<stop offset="0.9992" stop-color="#BFDDF4" stop-opacity="0"/>
</radialGradient>
<linearGradient id="paint1_linear" x1="217.545" y1="300.401" x2="239.951" y2="300.401" gradientUnits="userSpaceOnUse">
<stop offset="0.00202793" stop-color="#E7D5A1"/>
<stop offset="0.9965" stop-color="#BA9770"/>
</linearGradient>
<linearGradient id="paint2_linear" x1="226.187" y1="268.376" x2="230.15" y2="285.716" gradientUnits="userSpaceOnUse">
<stop offset="0.00202793" stop-color="#E7D5A1"/>
<stop offset="0.9965" stop-color="#BA9770"/>
</linearGradient>
<linearGradient id="paint3_linear" x1="217.443" y1="240.776" x2="219.293" y2="246.407" gradientUnits="userSpaceOnUse">
<stop offset="0.00202793" stop-color="#E7D5A1"/>
<stop offset="0.9965" stop-color="#BA9770"/>
</linearGradient>
<linearGradient id="paint4_linear" x1="217.909" y1="236.936" x2="220.221" y2="244.863" gradientUnits="userSpaceOnUse">
<stop offset="0.00202793" stop-color="#E7D5A1"/>
<stop offset="0.9965" stop-color="#BA9770"/>
</linearGradient>
<linearGradient id="paint5_linear" x1="206.636" y1="226.376" x2="201.022" y2="229.679" gradientUnits="userSpaceOnUse">
<stop offset="0.00721409" stop-color="#846D34"/>
<stop offset="1" stop-color="#6D4B25"/>
</linearGradient>
<linearGradient id="paint6_linear" x1="199.892" y1="227.796" x2="205.011" y2="242.823" gradientUnits="userSpaceOnUse">
<stop stop-color="#4F3D16"/>
<stop offset="0.9965" stop-color="#4F3D16" stop-opacity="0"/>
</linearGradient>
<linearGradient id="paint7_linear" x1="236.736" y1="223.81" x2="236.359" y2="225.75" gradientUnits="userSpaceOnUse">
<stop stop-color="white"/>
<stop offset="1" stop-color="white" stop-opacity="0"/>
</linearGradient>
</defs>
</svg>