<svg xmlns="http://www.w3.org/2000/svg" version="1.1" viewBox="-5.0 -10.0 110.0 135.0">
 <path d="m80.836 60.883 15.582 26.988c2.4492 4.2344-0.64844 9.4102-5.4297 9.4102l-31.16-0.003906c-1.1289 0-2.2188-0.28906-3.1445-0.83203v0.003907c-2.1992-1.2695-3.4766-3.8867-3.0664-6.4062-3.2734 1.6172-6.7617 2.8789-10.336 3.6836-0.22656 0.050782-0.45312 0.046876-0.66406-0.007812-11.469-2.6133-21.523-9.5781-28.672-19.242-7.0078-9.4688-11.223-21.531-11.223-34.617v-23.254c0-0.67188 0.46094-1.2344 1.0859-1.3906l39.414-12.426c0.30469-0.09375 0.61719-0.082031 0.89844 0.015626l38.094 12.441c0.60547 0.19531 0.98828 0.75781 0.98828 1.3594h0.003906v23.258c0 6.7734-1.125 13.418-3.3477 19.73 0.37109 0.37891 0.69922 0.8125 0.97656 1.293zm-6.8594 26.426c0 0.86328 0.62891 1.4961 1.4336 1.4961 0.78906 0 1.4336-0.64063 1.4336-1.4336 0-0.86328-0.62891-1.4961-1.4336-1.4961-0.79297 0-1.4336 0.64062-1.4336 1.4336zm0-19.656v12.137c0 0.78906 0.64063 1.4336 1.4336 1.4336 0.78906 0 1.4336-0.64062 1.4336-1.4336v-12.137c0-0.78906-0.64062-1.4336-1.4336-1.4336-0.79297 0-1.4336 0.64453-1.4336 1.4336zm-18.293 17.996 3.8047-6.5898c-4.7461 3.7695-10.27 6.5156-16.211 7.8555-0.22656 0.050782-0.45312 0.046876-0.66406-0.007812-9.7461-2.2227-18.289-8.1406-24.359-16.348-5.9492-8.0469-9.5273-18.289-9.5273-29.398l-0.003906-19.664c0-0.67188 0.46094-1.2344 1.0859-1.3906l33.309-10.5c0.30469-0.09375 0.61719-0.082031 0.89844 0.015625l32.199 10.516c0.60547 0.19531 0.98828 0.75781 0.98828 1.3594h0.003906v19.66c0 5.7109-0.95312 11.355-2.8125 16.668 0.99609-0.15625 2.0312-0.078125 2.9766 0.22266 1.9688-5.8047 2.9727-11.961 2.9727-18.188v-22.219l-36.703-11.984-38.051 11.996v22.211c0 12.461 3.9961 23.926 10.648 32.918 6.6914 9.0469 16.062 15.586 26.73 18.09 2.2383-0.52734 4.418-1.2305 6.5273-2.0938 2.1211-0.875 4.1914-1.9219 6.1875-3.1289zm2.3359 1.668-1.1445 1.9805-0.003906 0.003906c-0.98047 1.707-0.3125 3.7773 1.2461 4.6758v0.003907c0.49219 0.28125 1.0742 0.43359 1.7148 0.43359h31.156c2.7031 0 4.2461-2.8789 2.9531-5.1094l-15.578-26.992 0.003907-0.003906c-0.64063-1.0938-1.668-1.7031-2.957-1.7031-0.63672 0-1.2188 0.15234-1.7148 0.4375v-0.003907c-0.54687 0.31641-0.92969 0.73047-1.2422 1.2695zm7.3242-18.406 4.6367-8.0312 0.33984-0.52344c1.2969-2.9219 2.3086-6.0234 2.9922-9.2656 0.67188-3.1875 1.0273-6.5117 1.0273-9.9375v-18.621l-30.805-10.059-31.945 10.07v18.613c0 10.484 3.3633 20.133 8.957 27.695 5.6172 7.5938 13.473 13.086 22.422 15.199 4.3711-1.0352 8.4844-2.875 12.203-5.3711 3.8711-2.6016 7.3125-5.9141 10.172-9.7695zm-16.543-21.488-5.8359 5.8359-5.8359-5.8359c-0.55859-0.55859-1.4688-0.55859-2.0273 0-0.55859 0.55859-0.55859 1.4648 0 2.0273l5.8359 5.8359-5.8359 5.8359c-0.55859 0.55859-0.55859 1.4688 0 2.0273 0.55859 0.55859 1.4648 0.55859 2.0273 0l5.8359-5.8359 5.8359 5.8359c0.55859 0.55859 1.4688 0.55859 2.0273 0 0.55859-0.55859 0.55859-1.4648 0-2.0273l-5.8359-5.8359 5.8359-5.8359c0.55859-0.55859 0.55859-1.4648 0-2.0273-0.5625-0.5625-1.4688-0.5625-2.0273 0zm-23.156-6.3477c-0.8125 0.35156-1.3555 1.0859-1.3555 1.9922v24.426c0 1.1797 0.96875 2.1484 2.1484 2.1484h33.059c1.1758 0 2.1484-0.96875 2.1484-2.1484l-0.003906-24.422c0-1.1797-0.96875-2.1484-2.1484-2.1484h-33.055c-0.28125 0-0.54688 0.054687-0.79297 0.15234zm-1.9961-2.1641c-1.3555 0.91406-2.2227 2.4492-2.2227 4.1602v24.426c0 2.7578 2.2539 5.0117 5.0117 5.0117h33.059c2.7578 0 5.0117-2.2539 5.0117-5.0117l-0.003906-24.426c0-2.7617-2.2539-5.0117-5.0117-5.0117h-27.508v-4.7773c0-3.9961 3.2812-7.2773 7.2773-7.2773h7.5664c3.5391 0 6.5781 2.5977 7.1719 6.0391 0.36719 2.125 2.1133 3.3867 4.1992 3.3867 2.5234 0 4.4414-2.2734 4.0195-4.7617-1.2773-7.4688-7.793-13-15.391-13h-7.5664c-8.5938 0-15.613 7.0234-15.613 15.613zm5.4688-0.85156v-4.7773c0-5.5703 4.5703-10.145 10.145-10.145h7.5664c4.9219 0 9.1562 3.5898 9.9922 8.4258 0.17969 1.043 1.3672 1.1406 1.8984 0.89453 0.48047-0.22266 0.77734-0.74219 0.67969-1.3086-0.78125-4.3438-3.6328-7.9531-7.7031-9.6445-1.5234-0.63281-3.1719-0.96875-4.8672-0.96875h-7.5664c-7.0156 0-12.746 5.7305-12.746 12.746v4.7773z" fill-rule="evenodd"/>
<text x="0.0" y="117.5" font-size="5.0" font-weight="bold" font-family="Arbeit Regular, Helvetica, Arial-Unicode, Arial, Sans-serif" fill="#000000">Created by Sofiah</text><text x="0.0" y="122.5" font-size="5.0" font-weight="bold" font-family="Arbeit Regular, Helvetica, Arial-Unicode, Arial, Sans-serif" fill="#000000">from Noun Project</text></svg>